<svg xmlns="http://www.w3.org/2000/svg" version="1.1" xmlns:xlink="http://www.w3.org/1999/xlink" xmlns:svgjs="http://svgjs.dev/svgjs" width="1417" height="574" preserveAspectRatio="none" viewBox="0 0 1417 574"><g mask="url(&quot;#SvgjsMask1042&quot;)" fill="none"><rect width="1417" height="574" x="0" y="0" fill="#0e2a47"></rect><path d="M333.15 73.53L368.07 73.53L368.07 108.45L333.15 108.45z" fill="#e73635"></path><path d="M355.02 496.91 a56.24 56.24 0 1 0 112.48 0 a56.24 56.24 0 1 0 -112.48 0z" stroke="#d3b714"></path><path d="M608.46 302.36L649.27 302.36L649.27 343.17L608.46 343.17z" stroke="#037b0b"></path><path d="M297.08 375.66L309.26 375.66L309.26 389.31L297.08 389.31z" stroke="#037b0b"></path><path d="M1038.07 70.72 a7.22 7.22 0 1 0 14.44 0 a7.22 7.22 0 1 0 -14.44 0z" stroke="#e73635"></path><path d="M235.54 484.42 a16.39 16.39 0 1 0 32.78 0 a16.39 16.39 0 1 0 -32.78 0z" fill="#d3b714"></path><path d="M1021.78 554.3a42.16 42.16 0 1 0 56.01-63.03z" stroke="#e73635"></path><path d="M91.24 101.63a43.36 43.36 0 1 0-0.43 86.72z" fill="#e73635"></path><path d="M7.08 468.01L20.95 468.01L20.95 481.88L7.08 481.88z" fill="#d3b714"></path><path d="M1097.84 170.45a20.19 20.19 0 1 0 6 39.94z" fill="#d3b714"></path><path d="M831.57 167.72a26.22 26.22 0 1 0 32.8-40.92z" stroke="#e73635"></path><path d="M99.82 277.42 a56.62 56.62 0 1 0 113.24 0 a56.62 56.62 0 1 0 -113.24 0z" fill="#037b0b"></path><path d="M804.09 347.94 a23.34 23.34 0 1 0 46.68 0 a23.34 23.34 0 1 0 -46.68 0z" fill="#e73635"></path><path d="M51.32 148.61L53.03 148.61L53.03 150.32L51.32 150.32z" stroke="#037b0b"></path><path d="M157.58 381.18a27.26 27.26 0 1 0 54.4-3.6z" stroke="#037b0b"></path><path d="M189.31 19.33L214.29 19.33L214.29 44.31L189.31 44.31z" stroke="#037b0b"></path><path d="M541.04 70.78L570.64 70.78L570.64 100.38L541.04 100.38z" stroke="#d3b714"></path><path d="M1295.86 0.46L1307.82 0.46L1307.82 12.42L1295.86 12.42z" fill="#d3b714"></path><path d="M658.28 392.1 a25.8 25.8 0 1 0 51.6 0 a25.8 25.8 0 1 0 -51.6 0z" stroke="#037b0b"></path><path d="M337.22 435.83a24.96 24.96 0 1 0-47.01-16.81z" stroke="#d3b714"></path><path d="M89.99 8.62L119.7 8.62L119.7 38.33L89.99 38.33z" stroke="#037b0b"></path><path d="M1237.8 333.52 a14 14 0 1 0 28 0 a14 14 0 1 0 -28 0z" stroke="#037b0b"></path><path d="M1299.08 327.76a27.5 27.5 0 1 0-51.98 17.98z" fill="#037b0b"></path><path d="M150.57 40.6L192.37 40.6L192.37 82.4L150.57 82.4z" stroke="#037b0b"></path><path d="M666.8 235.03a23.42 23.42 0 1 0-44.19 15.54z" stroke="#d3b714"></path><path d="M1260.27 79.1 a30.15 30.15 0 1 0 60.3 0 a30.15 30.15 0 1 0 -60.3 0z" fill="#037b0b"></path><path d="M255.21 352.14L270.11 352.14L270.11 367.04L255.21 367.04z" fill="#d3b714"></path><path d="M497.92 266.94a36.39 36.39 0 1 0-5.98-72.53z" fill="#e73635"></path><path d="M825.33 222.67 a13.95 13.95 0 1 0 27.9 0 a13.95 13.95 0 1 0 -27.9 0z" fill="#e73635"></path><path d="M870.34 213.89a19.15 19.15 0 1 0 36.72-10.86z" stroke="#037b0b"></path><path d="M752.94 395.13 a10.03 10.03 0 1 0 20.06 0 a10.03 10.03 0 1 0 -20.06 0z" fill="#e73635"></path></g><defs><mask id="SvgjsMask1042"><rect width="1417" height="574" fill="#ffffff"></rect></mask></defs></svg>